<svg width="151" height="61" viewBox="0 0 151 61" fill="none" xmlns="http://www.w3.org/2000/svg">
<path d="M16.881 54.6888C23.1177 54.6888 25.1836 50.596 25.1836 45.6458C25.1836 40.6956 23.1177 36.602 16.881 36.602C10.6443 36.602 8.57835 40.6956 8.57835 45.6458C8.57835 50.596 10.6443 54.6888 16.881 54.6888ZM16.881 30.8334C28.6531 30.8334 33.6033 37.1481 33.6033 45.6458C33.6033 54.1427 28.6531 60.4583 16.881 60.4583C5.1089 60.4583 0.158691 54.1427 0.158691 45.6458C0.158691 37.1481 5.1089 30.8334 16.881 30.8334Z" fill="white"/>
<path d="M47.752 43.58H54.261C58.0035 43.58 59.212 42.4105 59.212 40.2665C59.212 37.5375 57.0681 37.0311 53.1313 37.0311H47.752V43.58ZM39.5664 31.5738H56.756C63.5389 31.5738 67.3976 34.0298 67.3976 38.9418C67.3976 42.5275 64.4743 45.0225 60.2645 45.7629V45.8409C62.6425 45.9969 64.8644 46.5423 65.799 48.2969C67.1636 50.8691 67.3196 56.7946 68.4891 59.7179H59.7964C58.8999 56.9888 59.017 52.935 58.2376 50.987C57.7305 49.6996 56.4837 49.0365 53.2085 49.0365H47.752V59.7179H39.5664V31.5738Z" fill="white"/>
<path d="M94.7994 40.8119C94.3703 37.6935 91.8371 36.602 88.7187 36.602C83.3776 36.602 80.8054 40.3445 80.8054 45.4898C80.8054 50.4798 82.9485 54.6888 88.4847 54.6888C91.603 54.6888 94.4483 53.5974 94.7214 50.1669H103.374C103.023 58.4696 96.1632 60.4583 87.6663 60.4583C79.2458 60.4583 72.3857 56.1704 72.3857 45.684C72.3857 35.1213 78.9345 30.8334 88.991 30.8334C96.1632 30.8334 103.101 33.3666 103.218 40.8119H94.7994Z" fill="white"/>
<path d="M124.969 37.0311L119.2 48.9202H130.543L124.969 37.0311ZM120.447 31.5738H130.23L144.849 59.717H135.689L133.038 54.1427H116.666L113.938 59.717H105.518L120.447 31.5738Z" fill="white"/>
<path d="M146.808 34.5887C147.378 34.5712 147.51 34.334 147.51 34.0362C147.51 33.7456 147.378 33.5968 146.895 33.5968H146.168V34.5887H146.808ZM146.168 35.1937V36.8688H145.563V32.9917H146.817C147.528 32.9917 148.264 33.1844 148.264 34.0617C148.264 34.5091 147.992 34.8602 147.474 34.9661V34.9828C148.01 35.0887 148.071 35.3251 148.133 35.7463C148.185 36.1148 148.229 36.5185 148.361 36.8688H147.589C147.544 36.6498 147.484 36.4038 147.457 36.1761C147.413 35.8426 147.413 35.5353 147.239 35.3514C147.089 35.1937 146.887 35.2113 146.677 35.1937H146.168ZM149.58 34.974C149.58 33.4829 148.37 32.2633 146.869 32.2633C145.361 32.2633 144.141 33.4829 144.141 34.974C144.141 36.4834 145.361 37.7023 146.869 37.7023C148.37 37.7023 149.58 36.4834 149.58 34.974ZM143.562 34.974C143.562 33.1581 145.036 31.6845 146.869 31.6845C148.695 31.6845 150.159 33.1581 150.159 34.974C150.159 36.8075 148.695 38.2819 146.869 38.2819C145.036 38.2819 143.562 36.8075 143.562 34.974Z" fill="white"/>
<path d="M91.2839 12.5754C103.725 14.0045 98.999 1.36701 98.4154 0.0128258C106.223 -0.61212 114.492 21.7458 109.787 26.2239C108.521 24.1445 104.558 18.6967 97.4935 18.1315C94.942 17.9277 94.0137 18.6426 94.2271 19.4562C94.3855 20.0597 98.7203 22.6454 101.146 24.0155C91.369 20.5238 82.8841 19.1736 75.4914 18.5431C48.4882 16.2463 32.035 29.3383 32.2093 29.0008C34.2959 24.9343 51.2865 7.98348 91.2839 12.5754Z" fill="white"/>
</svg>
