<svg width="150" height="61" viewBox="0 0 150 61" fill="none" xmlns="http://www.w3.org/2000/svg">
<path d="M16.7223 54.6888C22.959 54.6888 25.0249 50.596 25.0249 45.6458C25.0249 40.6956 22.959 36.602 16.7223 36.602C10.4856 36.602 8.41966 40.6956 8.41966 45.6458C8.41966 50.596 10.4856 54.6888 16.7223 54.6888ZM16.7223 30.8334C28.4944 30.8334 33.4446 37.1481 33.4446 45.6458C33.4446 54.1427 28.4944 60.4583 16.7223 60.4583C4.95021 60.4583 0 54.1427 0 45.6458C0 37.1481 4.95021 30.8334 16.7223 30.8334Z" fill="#6D6E71"/>
<path d="M47.5933 43.58H54.1023C57.8448 43.58 59.0533 42.4105 59.0533 40.2665C59.0533 37.5375 56.9093 37.0311 52.9718 37.0311H47.5933V43.58ZM39.4069 31.5738H56.5973C63.3801 31.5738 67.2389 34.0298 67.2389 38.9418C67.2389 42.5275 64.3155 45.0225 60.1057 45.7629V45.8409C62.4837 45.9969 64.7056 46.5423 65.6403 48.2969C67.0048 50.8691 67.1608 56.7946 68.3303 59.7179H59.6376C58.7412 56.9888 58.8582 52.935 58.0788 50.987C57.5717 49.6996 56.3242 49.0365 53.0498 49.0365H47.5933V59.7179H39.4069V31.5738Z" fill="#6D6E71"/>
<path d="M94.6402 40.8119C94.2111 37.6935 91.6779 36.602 88.5587 36.602C83.2184 36.602 80.6462 40.3445 80.6462 45.4898C80.6462 50.4798 82.7893 54.6888 88.3246 54.6888C91.4438 54.6888 94.2891 53.5974 94.5622 50.1669H103.215C102.864 58.4696 96.0039 60.4583 87.507 60.4583C79.0866 60.4583 72.2265 56.1704 72.2265 45.684C72.2265 35.1213 78.7753 30.8334 88.8318 30.8334C96.0039 30.8334 102.942 33.3666 103.059 40.8119H94.6402Z" fill="#6D6E71"/>
<path d="M124.809 37.0311L119.039 48.9202H130.383L124.809 37.0311ZM120.288 31.5738H130.071L144.689 59.717H135.528L132.879 54.1427H116.507L113.779 59.717H105.358L120.288 31.5738Z" fill="#6D6E71"/>
<path d="M146.649 34.5887C147.219 34.5712 147.351 34.334 147.351 34.0362C147.351 33.7456 147.219 33.5968 146.737 33.5968H146.009V34.5887H146.649ZM146.009 35.1937V36.8688H145.404V32.9917H146.658C147.369 32.9917 148.105 33.1844 148.105 34.0617C148.105 34.5091 147.834 34.8602 147.316 34.9661V34.9828C147.851 35.0887 147.913 35.3251 147.974 35.7463C148.026 36.1148 148.07 36.5185 148.202 36.8688H147.43C147.386 36.6498 147.325 36.4038 147.298 36.1761C147.254 35.8426 147.254 35.5353 147.08 35.3514C146.93 35.1937 146.728 35.2113 146.518 35.1937H146.009ZM149.421 34.974C149.421 33.4829 148.211 32.2633 146.71 32.2633C145.202 32.2633 143.982 33.4829 143.982 34.974C143.982 36.4834 145.202 37.7023 146.71 37.7023C148.211 37.7023 149.421 36.4834 149.421 34.974ZM143.403 34.974C143.403 33.1581 144.877 31.6845 146.71 31.6845C148.535 31.6845 150 33.1581 150 34.974C150 36.8075 148.535 38.2819 146.71 38.2819C144.877 38.2819 143.403 36.8075 143.403 34.974Z" fill="#231F20"/>
<path d="M91.1252 12.5754C103.565 14.0045 98.8403 1.36701 98.2559 0.0128258C106.064 -0.61212 114.333 21.7458 109.628 26.2239C108.363 24.1445 104.4 18.6967 97.334 18.1315C94.7833 17.9277 93.855 18.6426 94.0684 19.4562C94.2268 20.0597 98.5616 22.6454 100.987 24.0155C91.2104 20.5238 82.7254 19.1736 75.3327 18.5431C48.3295 16.2463 31.8763 29.3383 32.0506 29.0008C34.1372 24.9343 51.1278 7.98348 91.1252 12.5754Z" fill="#231F20"/>
</svg>
