<svg xmlns="http://www.w3.org/2000/svg" viewBox="0 0 400 300">
  <defs>
    <linearGradient id="ocean" x1="0%" y1="0%" x2="0%" y2="100%">
      <stop offset="0%" style="stop-color:#87CEEB;stop-opacity:1" />
      <stop offset="100%" style="stop-color:#1E90FF;stop-opacity:1" />
    </linearGradient>
    <linearGradient id="orca" x1="0%" y1="0%" x2="0%" y2="100%">
      <stop offset="0%" style="stop-color:#2C3E50;stop-opacity:1" />
      <stop offset="100%" style="stop-color:#34495E;stop-opacity:1" />
    </linearGradient>
  </defs>
  
  <!-- Ocean background -->
  <rect width="400" height="300" fill="url(#ocean)"/>
  
  <!-- Water waves -->
  <path d="M0,250 Q100,240 200,250 T400,250 L400,300 L0,300 Z" fill="#1E90FF" opacity="0.7"/>
  <path d="M0,260 Q150,250 300,260 T400,260 L400,300 L0,300 Z" fill="#4169E1" opacity="0.5"/>
  
  <!-- Orca silhouette -->
  <g transform="translate(200,150)">
    <!-- Main body -->
    <ellipse cx="0" cy="0" rx="80" ry="25" fill="url(#orca)"/>
    <!-- Head -->
    <ellipse cx="-60" cy="-5" rx="35" ry="20" fill="url(#orca)"/>
    <!-- Dorsal fin -->
    <path d="M-10,-25 L-5,-45 L5,-25 Z" fill="url(#orca)"/>
    <!-- Tail -->
    <path d="M70,-10 L90,-20 L95,0 L90,20 L70,10 Z" fill="url(#orca)"/>
    <!-- White patch -->
    <ellipse cx="-40" cy="5" rx="20" ry="12" fill="white" opacity="0.9"/>
    <!-- Eye -->
    <circle cx="-70" cy="-8" r="3" fill="white"/>
    <circle cx="-68" cy="-8" r="1.5" fill="#2C3E50"/>
  </g>
  
  <!-- Splash effect -->
  <circle cx="200" cy="175" r="15" fill="white" opacity="0.6"/>
  <circle cx="210" cy="170" r="8" fill="white" opacity="0.4"/>
  <circle cx="190" cy="180" r="6" fill="white" opacity="0.5"/>
</svg>